<svg width="29" height="26" viewBox="0 0 29 26" fill="none" xmlns="http://www.w3.org/2000/svg">
<g id="Logo">
<g id="Vector">
<path d="M7.55834 1.54H3.42834V4.284H7.41834V5.824H3.42834V9.8H1.81834V0H7.55834V1.54Z" fill="#212121"/>
<path d="M23.0601 0H24.6701V9.8H23.0601V0Z" fill="#212121"/>
<path d="M3.89121 25.784C2.36988 25.784 1.31988 25.1867 0.741211 23.992L2.12721 23.18C2.44454 23.8707 3.03721 24.216 3.90521 24.216C4.46521 24.216 4.89454 24.0807 5.19321 23.81C5.50121 23.53 5.65521 23.138 5.65521 22.634V15.802H7.26521V22.634C7.26521 23.642 6.94788 24.4213 6.31321 24.972C5.67854 25.5133 4.87121 25.784 3.89121 25.784Z" fill="#212121"/>
<path d="M27.1802 24.526C26.2002 25.506 25.0009 25.996 23.5822 25.996C22.1635 25.996 20.9595 25.506 19.9702 24.526C18.9902 23.5367 18.5002 22.3327 18.5002 20.914C18.5002 19.4953 18.9902 18.296 19.9702 17.316C20.9595 16.3267 22.1635 15.832 23.5822 15.832C25.0009 15.832 26.2002 16.3267 27.1802 17.316C28.1695 18.296 28.6642 19.4953 28.6642 20.914C28.6642 22.3327 28.1695 23.5367 27.1802 24.526ZM21.1042 23.434C21.7762 24.0967 22.6022 24.428 23.5822 24.428C24.5622 24.428 25.3835 24.0967 26.0462 23.434C26.7182 22.762 27.0542 21.922 27.0542 20.914C27.0542 19.906 26.7182 19.0707 26.0462 18.408C25.3835 17.736 24.5622 17.4 23.5822 17.4C22.6022 17.4 21.7762 17.736 21.1042 18.408C20.4415 19.0707 20.1102 19.906 20.1102 20.914C20.1102 21.922 20.4415 22.762 21.1042 23.434Z" fill="#212121"/>
</g>
</g>
</svg>
