<svg width="180" height="110" viewBox="0 0 180 110" fill="none" xmlns="http://www.w3.org/2000/svg">
<path fill-rule="evenodd" clip-rule="evenodd" d="M104.822 70.3718C97.933 75.3485 87.912 78 79.2688 78C67.16 78 56.3039 73.6352 48.0365 66.3741C47.4102 65.803 47.953 65.028 48.7464 65.4767C57.64 70.535 68.6214 73.5536 79.9786 73.5536C87.6197 73.5536 96.0541 72.0035 103.82 68.7809C104.989 68.3322 105.95 69.556 104.822 70.3718Z" fill="#212121"/>
<path fill-rule="evenodd" clip-rule="evenodd" d="M107.702 67.1492C106.825 66.0478 101.856 66.6189 99.6434 66.9044C98.9753 66.986 98.8501 66.4149 99.4764 66.007C103.443 63.2739 109.915 64.0897 110.667 64.9872C111.418 65.8846 110.458 72.2483 106.742 75.2669C106.157 75.7156 105.614 75.4709 105.865 74.859C106.7 72.8193 108.579 68.2914 107.702 67.1492Z" fill="#212121"/>
<path fill-rule="evenodd" clip-rule="evenodd" d="M99.7695 46.8345V44.183C99.7695 43.7751 100.062 43.5303 100.438 43.5303H112.546C112.922 43.5303 113.256 43.8158 113.256 44.183V46.4266C113.256 46.7937 112.922 47.2832 112.338 48.0991L106.074 56.8287C108.413 56.7879 110.876 57.1142 112.964 58.2564C113.423 58.5012 113.548 58.9091 113.59 59.2762V62.0909C113.59 62.4988 113.173 62.9475 112.713 62.7028C108.997 60.7855 104.028 60.5816 99.9365 62.7436C99.5189 62.9475 99.0596 62.5396 99.0596 62.1317V59.4394C99.0596 59.0315 99.0596 58.2972 99.5189 57.6445L106.784 47.4872H100.479C100.103 47.4872 99.7695 47.2016 99.7695 46.8345ZM55.6351 63.2739H51.9607C51.6267 63.2331 51.3344 62.9883 51.2926 62.662V44.2238C51.2926 43.8566 51.6267 43.5711 52.0025 43.5711H55.4263C55.8021 43.5711 56.0526 43.8566 56.0944 44.183V46.5897H56.1779C57.0547 44.2646 58.7667 43.1632 61.0214 43.1632C63.3179 43.1632 64.7793 44.2646 65.7814 46.5897C66.6582 44.2646 68.7042 43.1632 70.8754 43.1632C72.4203 43.1632 74.0905 43.7751 75.1344 45.2028C76.3035 46.7529 76.053 48.9965 76.053 50.9953V62.662C76.053 63.0291 75.7189 63.3147 75.3432 63.3147H71.7105C71.3347 63.2739 71.0424 62.9883 71.0424 62.662V52.8718C71.0424 52.0967 71.126 50.1387 70.9589 49.4044C70.6667 48.1806 69.8733 47.8135 68.7877 47.8135C67.9109 47.8135 66.9505 48.3846 66.5747 49.3228C66.1989 50.2611 66.2407 51.8112 66.2407 52.8718V62.662C66.2407 63.0291 65.9067 63.3147 65.5309 63.3147H61.8565C61.4807 63.2739 61.1884 62.9883 61.1884 62.662V52.8718C61.1884 50.8322 61.5224 47.7727 58.9337 47.7727C56.3032 47.7727 56.3867 50.7098 56.3867 52.8718V62.662C56.3449 62.9883 56.0526 63.2739 55.6351 63.2739ZM123.695 43.1632C129.165 43.1632 132.129 47.7319 132.129 53.5653C132.129 59.1946 128.872 63.6818 123.695 63.6818C118.35 63.6818 115.427 59.113 115.427 53.4021C115.386 47.6503 118.35 43.1632 123.695 43.1632ZM123.695 46.9569C120.981 46.9569 120.814 50.5874 120.814 52.831C120.814 55.0746 120.772 59.8881 123.653 59.8881C126.492 59.8881 126.659 56.0128 126.659 53.6469C126.659 52.0967 126.576 50.2203 126.116 48.7517C125.699 47.4464 124.864 46.9569 123.695 46.9569ZM139.186 63.2739H135.511C135.135 63.2331 134.843 62.9475 134.843 62.6212V44.1422C134.885 43.8158 135.177 43.5303 135.553 43.5303H138.977C139.311 43.5303 139.561 43.7751 139.645 44.0606V46.8753H139.728C140.772 44.3462 142.192 43.1632 144.739 43.1632C146.367 43.1632 147.996 43.7343 149.04 45.3252C150 46.7937 150 49.282 150 51.0769V62.7028C149.958 63.0291 149.666 63.2739 149.29 63.2739H145.616C145.282 63.2331 144.989 62.9883 144.948 62.7028V52.6678C144.948 50.6282 145.198 47.6911 142.651 47.6911C141.774 47.6911 140.939 48.2622 140.522 49.1597C140.021 50.3019 139.937 51.4033 139.937 52.6678V62.6212C139.895 62.9883 139.561 63.2739 139.186 63.2739ZM90.1242 54.4627C90.1242 55.8496 90.166 57.0326 89.4561 58.2972C88.8716 59.317 87.953 59.9289 86.9091 59.9289C85.4895 59.9289 84.6544 58.8683 84.6544 57.3182C84.6544 54.2587 87.4519 53.6876 90.1242 53.6876V54.4627ZM93.8403 63.2331C93.5898 63.4371 93.2558 63.4778 92.9635 63.3147C91.7526 62.3357 91.5021 61.8461 90.834 60.9079C88.8298 62.9068 87.3684 63.5186 84.7796 63.5186C81.6898 63.5186 79.2681 61.6422 79.2681 57.9301C79.2681 54.993 80.8965 53.035 83.193 52.0559C85.1972 51.1993 87.9947 51.0361 90.1242 50.7914V50.3427C90.1242 49.486 90.2077 48.4662 89.6649 47.7319C89.2056 47.0793 88.3705 46.7937 87.6189 46.7937C86.1993 46.7937 84.9467 47.4872 84.6544 48.9557C84.5709 49.2821 84.3621 49.6084 84.0281 49.6084L80.4789 49.2413C80.1867 49.1597 79.8526 48.9557 79.9361 48.507C80.7712 44.2646 84.6544 43 88.1617 43C89.9572 43 92.2954 43.4487 93.7151 44.7949C95.5105 46.4266 95.3435 48.6294 95.3435 50.9953V56.5839C95.3435 58.2564 96.0533 58.9907 96.7214 59.9289C96.9719 60.2552 97.0137 60.6632 96.7214 60.8671C95.9281 61.479 94.5919 62.6212 93.8403 63.2331ZM41.8979 54.4627C41.8979 55.8496 41.9396 57.0326 41.2298 58.2972C40.6453 59.317 39.7267 59.9289 38.6828 59.9289C37.2632 59.9289 36.4281 58.8683 36.4281 57.3182C36.4281 54.2587 39.2256 53.6876 41.8979 53.6876V54.4627ZM45.5723 63.2331C45.3217 63.4371 44.9877 63.4778 44.6954 63.3147C43.4846 62.3357 43.234 61.8461 42.566 60.9079C40.5618 62.9068 39.1003 63.5186 36.5116 63.5186C33.4218 63.5186 31 61.6422 31 57.9301C31 54.993 32.6284 53.035 34.9249 52.0559C36.9291 51.1993 39.7267 51.0361 41.8561 50.7914V50.3427C41.8561 49.486 41.9396 48.4662 41.3968 47.7319C40.9375 47.0793 40.1025 46.7937 39.3509 46.7937C37.9312 46.7937 36.6786 47.4872 36.3863 48.9557C36.3028 49.2821 36.094 49.6084 35.76 49.6084L32.2109 49.2413C31.9186 49.1597 31.5846 48.9557 31.6681 48.507C32.5032 44.2646 36.3863 43 39.8937 43C41.6891 43 44.0274 43.4487 45.447 44.7949C47.2425 46.4266 47.0754 48.6294 47.0754 50.9953V56.5839C47.0754 58.2564 47.7853 58.9907 48.4533 59.9289C48.7039 60.2552 48.7456 60.6632 48.4533 60.8671C47.66 61.479 46.3239 62.6212 45.5723 63.2331Z" fill="#212121"/>
</svg>
