<svg width="180" height="110" viewBox="0 0 180 110" fill="none" xmlns="http://www.w3.org/2000/svg">
<g clip-path="url(#clip0_885_10296)">
<path d="M31.5522 67.5614H26.4653V55.4814H23V51.5484H26.4652V48.7498C26.4652 45.4335 27.9978 43.055 33.071 43.055C34.144 43.055 35.8285 43.261 35.8285 43.261V46.913H34.0592C32.2564 46.913 31.5525 47.4354 31.5525 48.8796V51.5484H35.761L35.3863 55.4814H31.5524L31.5522 67.5614ZM43.2243 51.2341C43.1502 51.2341 43.074 51.2367 42.9985 51.2385C38.2816 51.2385 36.1235 54.6184 36.1235 59.4162C36.1235 65.4602 38.9228 67.8792 43.0354 67.8792C45.3883 67.8792 46.9342 66.9358 47.8738 65.1752V67.5631H52.7122V51.5501H47.8738V54.0127C47.1065 52.4283 45.5175 51.2529 43.2243 51.2341ZM44.4546 55.018C46.4357 55.018 47.6248 56.3343 47.6248 58.5734L47.6294 60.8603C47.6294 62.3694 46.6473 64.135 44.4546 64.135C41.0837 64.135 41.1737 60.6676 41.1737 59.5128C41.1737 55.6282 42.9697 55.018 44.4546 55.018ZM54.6661 59.5574C54.6661 57.6116 54.5684 51.2445 63.2764 51.2445C66.772 51.2445 68.2316 52.3033 68.2316 52.3033L67.0585 55.7695C67.0585 55.7695 65.6007 55.0048 63.7013 55.0048C61.2685 55.0048 59.7161 56.3483 59.7161 58.7121L59.7188 60.4071C59.7188 62.6784 61.2166 64.1947 63.7063 64.1947C65.4367 64.1947 67.0316 63.4228 67.0316 63.4228L68.2018 66.8166C68.2018 66.8166 66.8672 67.882 63.3009 67.882C55.0094 67.882 54.6663 62.1696 54.6663 59.5574H54.6661ZM96.6009 51.2385C101.318 51.2385 103.51 54.6184 103.51 59.4162C103.51 65.4602 100.711 67.8792 96.5981 67.8792C94.2452 67.8792 92.5058 66.9359 91.5662 65.1752V67.5631L86.7887 67.5613V43.5419L91.8612 43.1205V53.7957C92.5933 51.9281 94.9993 51.2385 96.6011 51.2385H96.6009ZM95.1788 55.018C93.1977 55.018 91.8612 56.3343 91.8612 58.5734L91.8565 60.8603C91.8535 62.3694 92.782 64.135 95.1788 64.135C98.5498 64.135 98.4597 60.6676 98.4597 59.5128C98.4597 55.6282 96.6638 55.018 95.1788 55.018ZM77.0328 51.2518C71.6828 51.2518 68.8583 54.0304 68.8583 58.9684V59.8859C68.8583 66.295 72.8247 67.945 77.5535 67.945C82.1498 67.945 84.2303 66.7204 84.2303 66.7204L83.2811 63.4591C83.2811 63.4591 80.8339 64.451 78.1617 64.451C75.3915 64.451 74.2001 63.7784 73.8947 61.2424H84.6359V58.626C84.6359 53.2695 81.4659 51.2516 77.0327 51.2516L77.0328 51.2518ZM77.1617 54.5174C79.0137 54.5174 80.2137 55.5992 80.1478 58.1081H73.904C74.0123 55.4675 75.3064 54.5176 77.1617 54.5176V54.5174ZM113.624 51.2298C108.13 51.2298 105.238 54.1791 105.238 59.4645C105.238 66.7163 110.224 67.8836 113.634 67.8836C118.625 67.8836 121.946 65.3235 121.946 59.5303C121.946 53.5006 118.212 51.2298 113.624 51.2298ZM113.555 55.0311C115.971 55.0311 116.928 56.7534 116.928 58.7139V60.3995C116.928 62.7745 115.589 64.1482 113.546 64.1482C111.636 64.1482 110.293 62.8632 110.293 60.3995V58.7139C110.293 56.0864 111.891 55.0311 113.555 55.0311ZM132.052 51.2298C126.558 51.2298 123.665 54.1791 123.665 59.4645C123.665 66.7163 128.651 67.8836 132.061 67.8836C137.052 67.8836 140.374 65.3235 140.374 59.5303C140.374 53.5006 136.639 51.2298 132.052 51.2298ZM131.983 55.0311C134.398 55.0311 135.356 56.7534 135.356 58.7139V60.3995C135.356 62.7745 134.016 64.1482 131.973 64.1482C130.063 64.1482 128.72 62.8632 128.72 60.3995V58.7139C128.72 56.0864 130.318 55.0311 131.983 55.0311ZM142.29 67.5614V43.5419L147.378 43.1205V59.2199L152.425 51.5484H157.797L152.532 59.4938L158 67.5614H152.612L147.378 59.7278V67.5614H142.29Z" fill="#212121"/>
</g>
<defs>
<clipPath id="clip0_885_10296">
<rect width="135" height="25" fill="white" transform="translate(23 43)"/>
</clipPath>
</defs>
</svg>
