<svg width="180" height="110" viewBox="0 0 180 110" fill="none" xmlns="http://www.w3.org/2000/svg">
<g clip-path="url(#clip0_885_10289)">
<path d="M166 54.9293V52.2123H162.702V47.9883L162.591 48.0233L159.494 48.993L159.433 49.0119V52.2124H154.544V50.4295C154.544 49.5993 154.725 48.964 155.083 48.5403C155.438 48.1217 155.946 47.9088 156.594 47.9088C157.059 47.9088 157.542 48.0211 158.027 48.2424L158.149 48.298V45.4366L158.091 45.4151C157.639 45.2486 157.023 45.1648 156.26 45.1648C155.298 45.1648 154.424 45.3789 153.662 45.8034C152.899 46.2284 152.299 46.8352 151.879 47.6066C151.46 48.3772 151.248 49.2672 151.248 50.2521V52.2123H148.951V54.9293H151.248V66.3756H154.544V54.9293H159.433V62.2032C159.433 65.199 160.814 66.7171 163.538 66.7171C163.985 66.7171 164.456 66.6634 164.937 66.5584C165.427 66.4505 165.76 66.3427 165.957 66.2276L166 66.2013V63.4592L165.866 63.5499C165.687 63.6719 165.464 63.7716 165.203 63.8457C164.941 63.9212 164.722 63.959 164.552 63.959C163.914 63.959 163.442 63.7831 163.149 63.4359C162.853 63.0856 162.702 62.473 162.702 61.616V54.9293H166ZM141.59 63.9594C140.393 63.9594 139.45 63.5535 138.785 62.754C138.117 61.9504 137.778 60.8047 137.778 59.349C137.778 57.8472 138.117 56.6717 138.786 55.8539C139.451 55.0415 140.385 54.6292 141.563 54.6292C142.706 54.6292 143.616 55.023 144.268 55.8003C144.923 56.5816 145.255 57.7476 145.255 59.267C145.255 60.805 144.943 61.9864 144.326 62.7767C143.714 63.561 142.793 63.9594 141.59 63.9594ZM141.736 51.8711C139.454 51.8711 137.641 52.5554 136.348 53.9051C135.056 55.2549 134.401 57.1229 134.401 59.4577C134.401 61.6752 135.041 63.4589 136.302 64.7584C137.563 66.0583 139.279 66.7168 141.403 66.7168C143.615 66.7168 145.392 66.0229 146.684 64.6545C147.976 63.2876 148.631 61.4373 148.631 59.1571C148.631 56.9049 148.017 55.1079 146.805 53.8171C145.592 52.5257 143.887 51.8711 141.736 51.8711ZM129.086 51.8711C127.534 51.8711 126.249 52.2774 125.268 53.0786C124.281 53.8846 123.78 54.9417 123.78 56.2209C123.78 56.8858 123.888 57.4764 124.101 57.9773C124.315 58.48 124.646 58.9225 125.086 59.2939C125.523 59.6623 126.197 60.0481 127.09 60.4408C127.841 60.7568 128.401 61.0242 128.756 61.2349C129.104 61.4415 129.351 61.6491 129.49 61.8513C129.625 62.0491 129.694 62.3199 129.694 62.6541C129.694 63.6057 128.997 64.0687 127.564 64.0687C127.033 64.0687 126.426 63.9551 125.762 63.7312C125.103 63.5107 124.48 63.1878 123.917 62.7738L123.78 62.6734V65.9205L123.83 65.9444C124.297 66.1647 124.885 66.3505 125.578 66.4967C126.27 66.643 126.898 66.7174 127.444 66.7174C129.129 66.7174 130.486 66.3091 131.476 65.5031C132.472 64.6916 132.977 63.6096 132.977 62.2862C132.977 61.3315 132.705 60.5128 132.17 59.8525C131.638 59.1976 130.714 58.5964 129.426 58.0649C128.399 57.6435 127.742 57.2936 127.471 57.025C127.209 56.7656 127.077 56.3987 127.077 55.9341C127.077 55.5222 127.24 55.1922 127.577 54.925C127.916 54.6564 128.388 54.5198 128.98 54.5198C129.529 54.5198 130.091 54.6086 130.65 54.7825C131.208 54.9565 131.699 55.1895 132.108 55.4745L132.243 55.5686V52.4885L132.191 52.4657C131.813 52.3 131.315 52.1582 130.71 52.0431C130.108 51.9288 129.562 51.8711 129.086 51.8711ZM115.187 63.9594C113.991 63.9594 113.047 63.5535 112.382 62.754C111.713 61.9504 111.375 60.805 111.375 59.349C111.375 57.8472 111.714 56.6717 112.383 55.8539C113.048 55.0415 113.982 54.6292 115.16 54.6292C116.303 54.6292 117.213 55.023 117.865 55.8003C118.52 56.5816 118.852 57.7476 118.852 59.267C118.852 60.805 118.539 61.9864 117.923 62.7767C117.311 63.561 116.391 63.9594 115.187 63.9594ZM115.334 51.8711C113.051 51.8711 111.237 52.5554 109.945 53.9051C108.653 55.2549 107.998 57.1229 107.998 59.4577C107.998 61.6761 108.638 63.4589 109.899 64.7584C111.16 66.0583 112.876 66.7168 115 66.7168C117.212 66.7168 118.99 66.0229 120.282 64.6545C121.573 63.2876 122.228 61.4373 122.228 59.1571C122.228 56.9049 121.614 55.1079 120.402 53.8171C119.189 52.5257 117.484 51.8711 115.334 51.8711ZM102.994 54.6651V52.2123H99.7381V66.3753H102.994V59.1304C102.994 57.8984 103.267 56.8864 103.806 56.1219C104.338 55.3666 105.047 54.9838 105.912 54.9838C106.205 54.9838 106.534 55.0333 106.891 55.1312C107.244 55.2285 107.5 55.3342 107.65 55.4453L107.787 55.5468V52.1881L107.734 52.1649C107.431 52.0331 107.002 51.9666 106.459 51.9666C105.641 51.9666 104.909 52.2356 104.282 52.7652C103.731 53.2308 103.333 53.8691 103.029 54.6651H102.994ZM93.9068 51.8711C92.4129 51.8711 91.0805 52.1988 89.9471 52.8449C88.8114 53.4925 87.9331 54.417 87.3355 55.5926C86.7406 56.7653 86.4385 58.1352 86.4385 59.6629C86.4385 61.001 86.7314 62.2291 87.3102 63.3114C87.8894 64.3955 88.7092 65.2437 89.7468 65.8319C90.7831 66.4194 91.9807 66.7172 93.3067 66.7172C94.8542 66.7172 96.1754 66.4007 97.2347 65.7764L97.2775 65.7513V62.6991L97.1407 62.8013C96.6608 63.159 96.1246 63.4444 95.5476 63.6501C94.9721 63.8556 94.4474 63.9594 93.9873 63.9594C92.7096 63.9594 91.6839 63.5504 90.9394 62.7439C90.1932 61.9365 89.8149 60.8026 89.8149 59.3758C89.8149 57.94 90.2094 56.777 90.987 55.9188C91.7622 55.0632 92.7898 54.6292 94.041 54.6292C95.1113 54.6292 96.1542 55 97.1409 55.7323L97.2775 55.8338V52.6177L97.2334 52.5923C96.8621 52.3797 96.3557 52.2041 95.727 52.0709C95.1009 51.938 94.4886 51.8711 93.9068 51.8711ZM84.1959 52.2124H80.9397V66.3753H84.1959V52.2124ZM82.6011 46.1789C82.0651 46.1789 81.5977 46.3656 81.2137 46.7355C80.8281 47.1064 80.6325 47.5735 80.6325 48.1246C80.6325 48.6671 80.8257 49.1257 81.2077 49.4867C81.5872 49.8468 82.0561 50.0292 82.6012 50.0292C83.1462 50.0292 83.6168 49.8468 84.0009 49.4873C84.3874 49.1257 84.5834 48.6673 84.5834 48.1246C84.5834 47.5927 84.3926 47.1305 84.0168 46.7504C83.6412 46.3711 83.1648 46.1789 82.6011 46.1789ZM74.4766 51.1675V66.3753H77.7997V46.6125H73.2004L67.3544 61.2917L61.6811 46.6125H56.8945V66.3751H60.0174V51.166H60.1246L66.1154 66.3753H68.4721L74.3694 51.1675H74.4766Z" fill="#212121"/>
<path d="M30.3181 55.6816H15V40.009H30.3181V55.6816Z" fill="#212121"/>
<path d="M47.2319 55.6811H31.9141V40.0085H47.2319V55.6811Z" fill="#212121"/>
<path d="M30.3177 72.9916H15V57.3191H30.3177V72.9916Z" fill="#212121"/>
<path d="M47.2319 72.9916H31.9141V57.3191H47.2319V72.9916Z" fill="#212121"/>
</g>
<defs>
<clipPath id="clip0_885_10289">
<rect width="151" height="33" fill="white" transform="translate(15 40)"/>
</clipPath>
</defs>
</svg>
