<svg width="180" height="110" viewBox="0 0 180 110" fill="none" xmlns="http://www.w3.org/2000/svg">
<g clip-path="url(#clip0_885_10300)">
<path d="M138.187 53.1427V63.9895H141.603V56.7583H154.096V63.9895H157.511V53.1427H138.187ZM141.213 49.6261H154.388C156.243 49.2794 157.56 47.5955 157.951 46.0105H137.651C138.041 47.5955 139.407 49.2299 141.213 49.6261ZM127.793 63.9895C129.501 63.2466 130.429 61.9588 130.819 60.4729H115.448V46.0601H111.983V63.9895H127.793ZM86.364 49.5766H98.5635C100.418 49.0318 101.931 47.5955 102.321 46.0601H82.9969V56.6592H98.8074V60.3739H86.4128C84.4608 60.9187 82.8017 62.256 81.9721 63.9895H102.223V53.1427H86.4128L86.364 49.5766ZM56.3044 49.6261H69.4799C71.3342 49.2794 72.7005 47.5955 73.0421 46.0105H52.6934C53.0837 47.5955 54.4501 49.2299 56.3044 49.6261ZM56.3044 56.7088H69.4799C71.3342 56.3621 72.7005 54.6781 73.0421 53.0931H52.6934C53.0837 54.6781 54.4501 56.3125 56.3044 56.7088ZM56.3044 63.9895H69.4799C71.3342 63.6428 72.7005 61.9588 73.0421 60.3739H52.6934C53.0837 61.9588 54.4501 63.6428 56.3044 63.9895Z" fill="#212121"/>
<path d="M22 46.0616C22.3904 47.6465 23.7567 49.2314 25.5623 49.6277H31.1252L31.418 49.7267V63.9415H34.8827V49.7267L35.1755 49.6277H40.7384C42.5928 49.1324 43.9103 47.6465 44.3007 46.0616V46.0121L22 46.0616Z" fill="#212121"/>
</g>
<defs>
<clipPath id="clip0_885_10300">
<rect width="136" height="18" fill="white" transform="translate(22 46)"/>
</clipPath>
</defs>
</svg>
