<svg width="180" height="110" viewBox="0 0 180 110" fill="none" xmlns="http://www.w3.org/2000/svg">
<g clip-path="url(#clip0_885_10324)">
<path d="M149.765 46.4557C150.644 46.4557 151.369 46.005 151.466 45.4226L152.335 35.7423C152.335 34.7855 151.198 34 149.768 34C148.339 34 147.203 34.7855 147.203 35.7425L148.071 45.4226C148.166 46.0048 148.89 46.4557 149.768 46.4557H149.765ZM144.456 49.4793C144.898 48.7294 144.864 47.8866 144.399 47.5122L136.326 41.9308C135.487 41.4517 134.229 42.0283 133.514 43.2492C132.798 44.4685 132.925 45.8303 133.762 46.3096L142.701 50.4118C143.26 50.6159 144.022 50.223 144.459 49.4736L144.456 49.4793ZM155.078 49.4741C155.518 50.2235 156.276 50.6166 156.836 50.4123L165.775 46.3101C166.617 45.831 166.737 44.4691 166.027 43.2497C165.309 42.0301 164.048 41.4522 163.211 41.9313L155.138 47.5127C154.676 47.8866 154.642 48.7301 155.081 49.4798L155.078 49.4741ZM149.765 58.5479C150.644 58.5479 151.369 58.9949 151.466 59.5778L152.335 69.2567C152.335 70.2164 151.198 71.0002 149.768 71.0002C148.339 71.0002 147.203 70.2164 147.203 69.2567L148.071 59.5778C148.166 58.9949 148.89 58.5479 149.768 58.5479H149.765ZM155.078 55.5236C155.518 54.7722 156.276 54.3825 156.836 54.5891L165.775 58.6885C166.617 59.1681 166.737 60.5313 166.027 61.7516C165.309 62.9673 164.048 63.5468 163.211 63.0684L155.138 57.4921C154.676 57.1153 154.642 56.2713 155.081 55.522H155.077L155.078 55.5236ZM144.456 55.5226C144.898 56.2713 144.864 57.1153 144.399 57.4928L136.326 63.0689C135.487 63.5473 134.229 62.9679 133.514 61.7522C132.798 60.5318 132.925 59.1686 133.762 58.689L142.701 54.5896C143.26 54.383 144.022 54.7727 144.459 55.5243H144.456" fill="#212121"/>
<path d="M98.8422 57.4745C98.8422 57.7716 98.8154 58.078 98.7329 58.347C98.3905 59.4646 97.2164 60.4097 95.7476 60.4097C94.5229 60.4097 93.5502 59.724 93.5502 58.2759C93.5502 56.0595 96.0254 55.4474 98.8429 55.4628L98.8422 57.4743V57.4745ZM103.262 53.6121C103.262 49.9574 101.677 46.7416 96.3234 46.7416C93.5753 46.7416 91.3941 47.5023 90.2036 48.1804L91.0756 51.1185C92.1636 50.4415 93.8977 49.8811 95.5387 49.8811C98.2543 49.8736 98.6991 51.3967 98.6991 52.3715V52.6022C92.7795 52.5936 89.0376 54.6138 89.0376 58.7291C89.0376 61.2437 90.9435 63.5989 94.2564 63.5989C96.2921 63.5989 97.9971 62.7981 99.0175 61.514H99.1182C99.1182 61.514 99.7934 64.3019 103.521 63.2352C103.326 62.0758 103.262 60.8382 103.262 59.35L103.262 53.6121H103.262ZM11.0293 41.7645C11.0293 41.7645 14.8976 57.3866 15.5153 59.922C16.2358 62.8813 17.5345 63.9708 21.2769 63.2352L23.6921 53.5501C24.3046 51.1432 24.7144 49.4272 25.1091 46.9813H25.1778C25.4548 49.4531 25.8478 51.1506 26.3518 53.558C26.3518 53.558 27.3345 57.9552 27.8387 60.2639C28.3433 62.572 29.748 64.0276 33.4142 63.2352L39.1696 41.7638H34.5241L32.5584 51.0474C32.0299 53.7485 31.5508 55.8616 31.1811 58.3322H31.1153C30.7794 55.8834 30.3517 53.8565 29.8149 51.224L27.77 41.7638H22.929L20.7403 50.9855C20.1209 53.7886 19.54 56.0511 19.172 58.4394H19.1051C18.7273 56.1904 18.2244 53.3458 17.6801 50.6337C17.6801 50.6337 16.3807 44.0375 15.9237 41.7638L11.0293 41.7645ZM47.9568 57.4745C47.9568 57.7716 47.93 58.078 47.8462 58.347C47.5045 59.4646 46.3297 60.4097 44.8609 60.4097C43.6361 60.4097 42.6647 59.724 42.6647 58.2759C42.6647 56.0595 45.1392 55.4474 47.9573 55.4628L47.9568 57.4743V57.4745ZM52.3756 53.6121C52.3756 49.9574 50.7912 46.7416 45.4385 46.7416C42.6896 46.7416 40.5068 47.5023 39.3169 48.1804L40.1878 51.1185C41.2757 50.4415 43.0098 49.8811 44.6514 49.8811C47.3689 49.8736 47.8136 51.3967 47.8136 52.3715V52.6022C41.8916 52.5936 38.1515 54.6138 38.1515 58.7291C38.1515 61.2437 40.0562 63.5989 43.3667 63.5989C45.4052 63.5989 47.1092 62.7981 48.1308 61.514H48.2303C48.2303 61.514 48.9074 64.3019 52.6339 63.2352C52.4391 62.0758 52.3756 60.8382 52.3756 59.35V53.6121ZM59.7505 58.6774V41.7645H55.3258V63.2359H59.7505V58.6774ZM117.633 41.7645V57.6035C117.633 59.7883 118.051 61.3173 118.942 62.253C119.722 63.0711 121.005 63.6007 122.544 63.6007C123.853 63.6007 125.139 63.3545 125.746 63.1326L125.689 59.7258C125.237 59.8346 124.719 59.9227 124.009 59.9227C122.501 59.9227 121.997 58.9707 121.997 57.0103V50.9499H125.85V46.8412H121.997V41.7645H117.633ZM106.212 47.1058V63.2359H110.776V54.977C110.776 54.5305 110.804 54.1416 110.875 53.7858C111.213 52.0549 112.555 50.9499 114.483 50.9499C115.012 50.9499 115.39 51.0066 115.8 51.0639V46.8412C115.456 46.7737 115.223 46.7421 114.795 46.7421C113.091 46.7421 111.154 47.8253 110.34 50.1489H110.217V47.1058H106.212ZM62.8486 47.1058V63.2359H67.2955V53.7772C67.2955 53.3333 67.3484 52.8639 67.5043 52.457C67.8728 51.5047 68.7721 50.3893 70.2071 50.3893C72.0024 50.3893 72.8407 51.8845 72.8407 54.0423V63.2347H77.2841V53.6608C77.2841 53.2373 77.3428 52.7268 77.4698 52.3534C77.8346 51.2695 78.8033 50.3881 80.1376 50.3881C81.9566 50.3881 82.8298 51.857 82.8298 54.3969V63.2342H87.2762V53.7335C87.2762 48.7237 84.695 46.7405 81.7809 46.7405C80.4915 46.7405 79.4727 47.0588 78.5513 47.6153C77.7777 48.0851 77.0838 48.7507 76.4783 49.6256H76.4126C75.7099 47.8873 74.0566 46.7414 71.9021 46.7414C69.1343 46.7414 67.8904 48.1243 67.1358 49.297H67.0696V47.1053H62.8486" fill="#212121"/>
<path d="M168.017 62.4516H168.084C168.174 62.4516 168.231 62.4154 168.231 62.3615C168.231 62.3002 168.177 62.2668 168.094 62.2668C168.066 62.2668 168.037 62.2725 168.018 62.2725V62.4532V62.4515L168.017 62.4516ZM168.007 62.8865H167.771V62.1275C167.824 62.1171 167.949 62.0986 168.11 62.0986C168.284 62.0986 168.362 62.1228 168.419 62.1608C168.467 62.194 168.502 62.2506 168.502 62.3271C168.502 62.405 168.429 62.471 168.322 62.4998V62.5095C168.409 62.5325 168.457 62.595 168.482 62.7047C168.506 62.8142 168.521 62.8589 168.536 62.887H168.268C168.244 62.8589 168.231 62.7917 168.215 62.7247C168.2 62.6478 168.163 62.6093 168.084 62.6093H168.007L168.007 62.8865ZM168.105 61.8801C167.765 61.8801 167.509 62.1527 167.509 62.5002C167.509 62.8387 167.766 63.1148 168.114 63.1148C168.464 63.1205 168.72 62.8389 168.72 62.4946C168.72 62.152 168.464 61.8801 168.11 61.8801H168.105ZM168.12 61.6741C168.593 61.6741 168.97 62.0413 168.97 62.4945C168.97 62.953 168.593 63.3207 168.114 63.3207C167.634 63.3207 167.252 62.9525 167.252 62.4946C167.252 62.0413 167.634 61.6743 168.114 61.6743H168.119" fill="#212121"/>
</g>
<defs>
<clipPath id="clip0_885_10324">
<rect width="158" height="37" fill="white" transform="translate(11 34)"/>
</clipPath>
</defs>
</svg>
