<svg width="29" height="26" viewBox="0 0 29 26" fill="none" xmlns="http://www.w3.org/2000/svg">
<path d="M7.55809 1.54H3.42809V4.284H7.41809V5.824H3.42809V9.8H1.81809V0H7.55809V1.54Z" fill="#212121"/>
<path d="M23.0599 0H24.6699V9.8H23.0599V0Z" fill="#212121"/>
<path d="M3.89097 25.784C2.36963 25.784 1.31963 25.1867 0.740967 23.992L2.12697 23.18C2.4443 23.8707 3.03697 24.216 3.90497 24.216C4.46497 24.216 4.8943 24.0807 5.19297 23.81C5.50097 23.53 5.65497 23.138 5.65497 22.634V15.802H7.26497V22.634C7.26497 23.642 6.94763 24.4213 6.31297 24.972C5.6783 25.5133 4.87097 25.784 3.89097 25.784Z" fill="#212121"/>
<path d="M27.18 24.526C26.2 25.506 25.0006 25.996 23.582 25.996C22.1633 25.996 20.9593 25.506 19.97 24.526C18.99 23.5367 18.5 22.3327 18.5 20.914C18.5 19.4953 18.99 18.296 19.97 17.316C20.9593 16.3267 22.1633 15.832 23.582 15.832C25.0006 15.832 26.2 16.3267 27.18 17.316C28.1693 18.296 28.664 19.4953 28.664 20.914C28.664 22.3327 28.1693 23.5367 27.18 24.526ZM21.104 23.434C21.776 24.0967 22.602 24.428 23.582 24.428C24.562 24.428 25.3833 24.0967 26.046 23.434C26.718 22.762 27.054 21.922 27.054 20.914C27.054 19.906 26.718 19.0707 26.046 18.408C25.3833 17.736 24.562 17.4 23.582 17.4C22.602 17.4 21.776 17.736 21.104 18.408C20.4413 19.0707 20.11 19.906 20.11 20.914C20.11 21.922 20.4413 22.762 21.104 23.434Z" fill="#212121"/>
</svg>
